Coordinates
version=1
nRows=17
nColumns=40
inDegrees=yes
endheader
time	pelvis_tilt	pelvis_list	pelvis_rotation	pelvis_tx	pelvis_ty	pelvis_tz	hip_flexion_r	hip_adduction_r	hip_rotation_r	knee_angle_r	knee_angle_r_beta	ankle_angle_r	subtalar_angle_r	mtp_angle_r	hip_flexion_l	hip_adduction_l	hip_rotation_l	knee_angle_l	knee_angle_l_beta	ankle_angle_l	subtalar_angle_l	mtp_angle_l	lumbar_extension	lumbar_bending	lumbar_rotation	arm_flex_r	arm_add_r	arm_rot_r	elbow_flex_r	pro_sup_r	wrist_flex_r	wrist_dev_r	arm_flex_l	arm_add_l	arm_rot_l	elbow_flex_l	pro_sup_l	wrist_flex_l	wrist_dev_l
1760624601.56900001	      0.57488913	      0.04370704	      3.43240619	     -0.02091605	      0.94971783	      0.01089267	     80.00000000	     -7.00000000	      0.00000000	     80.00000000	      1.39626340	      0.00000000	      0.00000000	      0.00000000	     80.00000000	     -7.00000000	      0.00000000	     80.00000000	      1.39626340	      0.00000000	      0.00000000	      0.00000000	     -9.28778460	     -0.09285747	     -4.13267327	     -4.24856392	    -21.01238419	     15.26605250	      0.00000000	     58.10878640	     14.59414672	      7.78821766	      7.03425092	    -33.06106643	     67.69625320	      0.00000000	      1.29289541	      5.94607074	      0.71522285
1760624601.60299993	      0.59266258	      0.06777245	      3.38075084	     -0.01913344	      0.95002922	      0.01253741	     80.00000000	     -7.00000000	      0.00000000	     80.00000000	      1.39626340	      0.00000000	      0.00000000	      0.00000000	     80.00000000	     -7.00000000	      0.00000000	     80.00000000	      1.39626340	      0.00000000	      0.00000000	      0.00000000	    -10.05358579	     -0.38346275	     -4.99602349	     -5.38537636	    -24.32854721	     12.46821449	      0.00000000	     59.91069935	     14.50028085	      8.95898217	      7.18433249	    -37.55777549	     65.91019972	      0.00000000	      0.16896770	      6.54673661	      0.04707644
1760624601.63599992	      0.59545838	      0.07806598	      3.34895190	     -0.01659586	      0.95171919	      0.01326283	     80.00000000	     -7.00000000	      0.00000000	     80.00000000	      1.39626340	      0.00000000	      0.00000000	      0.00000000	     80.00000000	     -7.00000000	      0.00000000	     80.00000000	      1.39626340	      0.00000000	      0.00000000	      0.00000000	    -11.00153922	     -0.67700555	     -5.57726922	     -5.97932439	    -26.76357903	     10.34289486	      0.00000000	     61.19028301	     14.47570873	      9.94928030	      8.12066592	    -41.52791643	     58.47264814	      0.00000000	      5.62437748	      7.22487865	     -0.27313914
1760624601.66899991	      0.58607757	      0.09951925	      3.29676513	     -0.01597470	      0.95157251	      0.01406578	     80.00000000	     -7.00000000	      0.00000000	     80.00000000	      1.39626340	      0.00000000	      0.00000000	      0.00000000	     80.00000000	     -7.00000000	      0.00000000	     80.00000000	      1.39626340	      0.00000000	      0.00000000	      0.00000000	    -11.33027082	     -1.32653354	     -5.05307975	     -7.96401977	    -28.76862652	      7.00598355	      0.00000000	     62.50274924	     14.37275557	     10.93899674	      8.51574582	    -45.45608109	     57.49746209	      0.00000000	      5.07106548	      8.01558171	     -0.79397237
1760624601.70300007	      0.59587129	      0.13140869	      3.24942571	     -0.01492389	      0.95044970	      0.01436234	     80.00000000	     -7.00000000	      0.00000000	     80.00000000	      1.39626340	      0.00000000	      0.00000000	      0.00000000	     80.00000000	     -7.00000000	      0.00000000	     80.00000000	      1.39626340	      0.00000000	      0.00000000	      0.00000000	    -11.53912698	     -1.67384612	     -3.87755128	    -11.37910885	    -31.71725813	      1.74966379	      0.00000000	     64.29113376	     14.21543001	     12.32223369	      9.53712423	    -49.84580319	     56.83157558	      0.00000000	      3.99717315	      8.79145265	     -1.70881895
1760624601.73600006	      0.59435619	      0.15588426	      3.24374505	     -0.01504512	      0.95158957	      0.01457578	     80.00000000	     -7.00000000	      0.00000000	     80.00000000	      1.39626340	      0.00000000	      0.00000000	      0.00000000	     80.00000000	     -7.00000000	      0.00000000	     80.00000000	      1.39626340	      0.00000000	      0.00000000	      0.00000000	    -11.16434895	     -1.82834725	     -1.65042159	    -15.53685087	    -33.63859502	     -4.22942465	      0.00000000	     65.83185478	     14.12778318	     13.31179922	     11.46317789	    -52.89079303	     57.60550030	      0.00000000	      4.16184109	      9.44779292	     -2.65099197
1760624601.76999998	      0.60351731	      0.18090368	      3.27530533	     -0.01624695	      0.95424193	      0.01592004	     80.00000000	     -7.00000000	      0.00000000	     80.00000000	      1.39626340	      0.00000000	      0.00000000	      0.00000000	     80.00000000	     -7.00000000	      0.00000000	     80.00000000	      1.39626340	      0.00000000	      0.00000000	      0.00000000	    -10.53421819	     -1.85582715	      0.34741402	    -20.02180008	    -35.46549608	    -10.50223976	      0.00000000	     67.63447866	     14.00747295	     14.20613364	     13.62594991	    -55.75868758	     58.77062294	      0.00000000	      4.47165941	     10.03174836	     -3.35708481
1760624601.80299997	      0.62203386	      0.21206889	      3.30836315	     -0.01551747	      0.95635744	      0.01735471	     80.00000000	     -7.00000000	      0.00000000	     80.00000000	      1.39626340	      0.00000000	      0.00000000	      0.00000000	     80.00000000	     -7.00000000	      0.00000000	     80.00000000	      1.39626340	      0.00000000	      0.00000000	      0.00000000	     -9.93418536	     -1.62630589	      0.90226001	    -24.59757843	    -38.44479679	    -16.76754305	      0.00000000	     69.95391997	     13.76177593	     15.11361874	     13.95369654	    -59.42476610	     62.05757850	      0.00000000	      0.07318147	     10.79547897	     -3.75905401
1760624601.83699989	      0.63257371	      0.22104984	      3.32429294	     -0.01598552	      0.95979197	      0.01560994	     80.00000000	     -7.00000000	      0.00000000	     80.00000000	      1.39626340	      0.00000000	      0.00000000	      0.00000000	     80.00000000	     -7.00000000	      0.00000000	     80.00000000	      1.39626340	      0.00000000	      0.00000000	      0.00000000	     -9.78397896	     -1.61682115	      0.06568780	    -26.87993483	    -40.96695220	    -19.85913400	      0.00000000	     71.85278344	     13.73600852	     15.64854465	     13.21109795	    -62.83951660	     56.41973726	      0.00000000	      2.96792926	     11.64934472	     -3.53481985
1760624601.86999989	      0.61074867	      0.22219601	      3.34086376	     -0.01591039	      0.96193024	      0.01348938	     80.00000000	     -7.00000000	      0.00000000	     80.00000000	      1.39626340	      0.00000000	      0.00000000	      0.00000000	     80.00000000	     -7.00000000	      0.00000000	     80.00000000	      1.39626340	      0.00000000	      0.00000000	      0.00000000	     -8.87602040	     -1.68451367	     -1.06500695	    -29.68466096	    -43.53525801	    -22.27918844	      0.00000000	     73.54152058	     13.83637029	     15.98090421	      9.99436353	    -66.08362518	     53.03568889	      0.00000000	      1.86165475	     12.51636757	     -3.33356151
1760624601.90400004	      0.61787210	      0.21899609	      3.33808947	     -0.01217165	      0.96430979	      0.01295873	     80.00000000	     -7.00000000	      0.00000000	     80.00000000	      1.39626340	      0.00000000	      0.00000000	      0.00000000	     80.00000000	     -7.00000000	      0.00000000	     80.00000000	      1.39626340	      0.00000000	      0.00000000	      0.00000000	     -5.83382017	     -1.40295306	     -3.74575028	    -34.39023652	    -47.95614749	    -24.44090048	      0.00000000	     75.58395786	     13.90719917	     16.29187008	      0.74760277	    -69.71779915	     41.10658426	      0.00000000	      4.34931112	     13.24387775	     -2.98025762
1760624601.93700004	      0.62417586	      0.21154365	      3.33725298	     -0.01282287	      0.96594438	      0.01052098	     80.00000000	     -7.00000000	      0.00000000	     80.00000000	      1.39626340	      0.00000000	      0.00000000	      0.00000000	     80.00000000	     -7.00000000	      0.00000000	     80.00000000	      1.39626340	      0.00000000	      0.00000000	      0.00000000	     -6.99389014	     -1.53215356	     -5.16139469	    -34.69943533	    -50.55137652	    -26.61246574	      0.00000000	     77.29069828	     14.15027281	     16.62653162	     -3.57178944	    -72.55466084	     35.13003644	      0.00000000	      2.88995476	     13.88621089	     -2.72340264
1760624601.97099996	      0.63116444	      0.19731341	      3.33006782	     -0.01640982	      0.96753714	      0.00765960	     80.00000000	     -7.00000000	      0.00000000	     80.00000000	      1.39626340	      0.00000000	      0.00000000	      0.00000000	     80.00000000	     -7.00000000	      0.00000000	     80.00000000	      1.39626340	      0.00000000	      0.00000000	      0.00000000	     -3.89641730	     -1.55742445	      1.13680252	    -46.41851962	    -48.23139839	    -38.25120608	      0.00000000	     78.73324964	     14.25834949	     16.86476400	     12.20240436	    -75.20145167	     44.25585154	      0.00000000	     12.04071944	     15.01989449	     -2.85291746
1760624602.00399995	      0.63918304	      0.17003248	      3.33640861	     -0.01793932	      0.96839206	      0.00452758	     80.00000000	     -7.00000000	      0.00000000	     80.00000000	      1.39626340	      0.00000000	      0.00000000	      0.00000000	     80.00000000	     -7.00000000	      0.00000000	     80.00000000	      1.39626340	      0.00000000	      0.00000000	      0.00000000	     -4.32358782	     -1.51970284	      2.31290182	    -50.93334437	    -49.21910346	    -45.64281147	      0.00000000	     80.59053713	     14.09403781	     17.24660291	     19.48743247	    -78.13280992	     50.39485711	      0.00000000	     10.87473078	     15.83476149	     -2.34271111
1760624602.03699994	      0.65089353	      0.13359888	      3.35826694	     -0.02000908	      0.97335826	      0.00237388	     80.00000000	     -7.00000000	      0.00000000	     80.00000000	      1.39626340	      0.00000000	      0.00000000	      0.00000000	     80.00000000	     -7.00000000	      0.00000000	     80.00000000	      1.39626340	      0.00000000	      0.00000000	      0.00000000	     -5.37573418	     -1.54040437	      3.20924140	    -53.60767218	    -49.73176858	    -51.32991387	      0.00000000	     82.10367226	     13.94201014	     17.57107654	     29.35817000	    -80.17094225	     55.70761939	      0.00000000	     12.85858875	     16.48294138	     -1.89184942
1760624602.07100010	      0.64530635	      0.10837730	      3.36644311	     -0.02164424	      0.97722005	      0.00078105	     80.00000000	     -7.00000000	      0.00000000	     80.00000000	      1.39626340	      0.00000000	      0.00000000	      0.00000000	     80.00000000	     -7.00000000	      0.00000000	     80.00000000	      1.39626340	      0.00000000	      0.00000000	      0.00000000	     -6.68695303	     -1.94273242	      2.08570083	    -54.11255434	    -51.53635308	    -54.49916718	      0.00000000	     83.32765201	     13.74916536	     17.83384253	     30.50174052	    -83.10850726	     54.89434744	      0.00000000	     11.74343824	     17.05001467	     -1.52900062
1760624602.10400009	      0.64866621	      0.08095086	      3.37261689	     -0.02083907	      0.98020983	     -0.00037652	     80.00000000	     -7.00000000	      0.00000000	     80.00000000	      1.39626340	      0.00000000	      0.00000000	      0.00000000	     80.00000000	     -7.00000000	      0.00000000	     80.00000000	      1.39626340	      0.00000000	      0.00000000	      0.00000000	    -10.46778568	     -1.04899901	      0.89324706	    -54.37447933	    -54.37832145	    -60.63727348	      0.00000000	     84.45921399	     13.45466481	     18.22477966	     32.50032016	    -85.35116656	     53.30065976	      0.00000000	      9.48360318	     17.43418417	     -1.01579420
